<svg width="862" height="686" viewBox="0 0 862 686" fill="none" xmlns="http://www.w3.org/2000/svg">
<path fill-rule="evenodd" clip-rule="evenodd" d="M192.411 159.077L290.967 142.142V102.142L192.411 119.077V159.077ZM399.378 123.514L300.822 140.449V100.449L399.378 83.5138V123.514ZM182.556 160.771V120.771L84 137.706V177.706L182.556 160.771ZM833.023 49L734.467 65.935V25.935L833.023 9V49ZM724.611 27.6284V67.6284L626.056 84.5634V44.5634L724.611 27.6284ZM616.2 46.2569V86.2569L517.645 103.192V63.1918L616.2 46.2569ZM507.789 64.8853V104.885L409.234 121.82V81.8203L507.789 64.8853ZM129.336 179.916L84 187.706V227.706L129.336 219.916V179.916ZM139.191 178.222V218.222L237.747 201.287V161.287L139.191 178.222ZM346.158 182.659L247.602 199.594V159.594L346.158 142.659V182.659ZM356.013 180.965L454.569 164.03V124.03L356.013 140.965V180.965ZM779.803 108.145L681.247 125.08V85.0798L779.803 68.1449V108.145ZM671.391 86.7733V126.773L572.836 143.708V103.708L671.391 86.7733ZM562.98 105.402V145.402L464.425 162.337V122.337L562.98 105.402ZM793.6 105.774L833.023 99V59L793.6 65.774V105.774ZM833.023 109L734.467 125.935V165.935L833.023 149V109ZM626.056 144.563L724.611 127.628V167.628L626.056 184.563V144.563ZM616.2 146.257L517.645 163.192V203.192L616.2 186.257V146.257ZM409.234 181.82L507.789 164.885V204.885L409.234 221.82V181.82ZM192.411 219.077L290.967 202.142V242.142L192.411 259.077V219.077ZM300.822 240.449V200.449L399.378 183.514V223.514L300.822 240.449ZM182.556 220.771L84 237.706V277.706L182.556 260.771V220.771ZM237.747 261.287L139.191 278.222V318.222L237.747 301.287V261.287ZM247.602 259.594V299.594L346.158 282.659V242.659L247.602 259.594ZM454.569 264.03L356.013 280.965V240.965L454.569 224.03V264.03ZM464.425 222.337V262.337L562.98 245.402V205.402L464.425 222.337ZM671.391 226.773L572.836 243.708V203.708L671.391 186.773V226.773ZM681.247 185.08V225.08L779.803 208.145V168.145L681.247 185.08ZM833.023 199L789.658 206.451V166.451L833.023 159V199ZM84 287.706L129.336 279.916V319.916L84 327.706V287.706ZM833.023 209L734.467 225.935V265.935L833.023 249V209ZM626.056 244.563L724.611 227.628V267.628L626.056 284.563V244.563ZM616.2 246.257L517.645 263.192V303.192L616.2 286.257V246.257ZM409.234 281.82L507.789 264.885V304.885L409.234 321.82V281.82ZM192.411 319.077L290.967 302.142V342.142L192.411 359.077V319.077ZM300.822 340.449V300.449L399.378 283.514V323.514L300.822 340.449ZM182.556 320.771L84 337.706V377.706L182.556 360.771V320.771ZM833.023 549L734.467 565.935V525.935L833.023 509V549ZM724.611 527.628V567.628L626.056 584.563V544.563L724.611 527.628ZM616.2 546.257V586.257L517.645 603.192V563.192L616.2 546.257ZM507.789 564.885V604.885L409.234 621.82V581.82L507.789 564.885ZM399.378 583.514V623.514L300.822 640.449V600.449L399.378 583.514ZM290.967 602.142V642.142L192.411 659.077V619.077L290.967 602.142ZM182.556 620.771V660.771L84 677.706V637.706L182.556 620.771ZM128.35 620.085L84 627.706V587.706L128.35 580.085V620.085ZM138.206 618.391L236.761 601.456V561.456L138.206 578.391V618.391ZM345.172 582.828L246.617 599.763V559.763L345.172 542.828V582.828ZM355.028 581.135L453.584 564.2V524.2L355.028 541.135V581.135ZM778.817 508.314L680.261 525.249V485.249L778.817 468.314V508.314ZM670.406 486.943V526.943L571.85 543.878V503.878L670.406 486.943ZM561.995 505.571V545.571L463.439 562.506V522.506L561.995 505.571ZM833.023 499L788.673 506.621V466.621L833.023 459V499ZM833.023 449L734.467 465.935V425.935L833.023 409V449ZM724.611 427.628V467.628L626.056 484.563V444.563L724.611 427.628ZM616.2 446.257V486.257L517.645 503.192V463.192L616.2 446.257ZM507.789 464.885V504.885L409.234 521.82V481.82L507.789 464.885ZM399.378 483.514V523.514L300.822 540.449V500.449L399.378 483.514ZM290.967 502.142V542.142L192.411 559.077V519.077L290.967 502.142ZM182.556 520.771V560.771L84 577.706V537.706L182.556 520.771ZM237.747 501.287L139.191 518.222V478.222L237.747 461.287V501.287ZM247.602 499.594L346.158 482.659V442.659L247.602 459.594V499.594ZM454.569 464.03L356.013 480.965V440.965L454.569 424.03V464.03ZM681.247 425.08L779.803 408.145V368.145L681.247 385.08V425.08ZM671.391 426.773V386.773L572.836 403.708V443.708L671.391 426.773ZM562.98 445.402V405.402L464.425 422.337V462.337L562.98 445.402ZM789.658 406.451L833.023 399V359L789.658 366.451V406.451ZM129.336 479.916V519.916L84 527.706V487.706L129.336 479.916ZM833.023 349L734.467 365.935V325.935L833.023 309V349ZM724.611 327.628V367.628L626.056 384.563V344.563L724.611 327.628ZM616.2 346.257V386.257L517.645 403.192V363.192L616.2 346.257ZM507.789 364.885V404.885L409.234 421.82V381.82L507.789 364.885ZM399.378 383.514V423.514L300.822 440.449V400.449L399.378 383.514ZM290.967 402.142V442.142L192.411 459.077V419.077L290.967 402.142ZM182.556 420.771V460.771L84 477.706V437.706L182.556 420.771ZM84 387.706V427.706L129.336 419.916V379.916L84 387.706ZM139.191 378.222V418.222L237.747 401.287V361.287L139.191 378.222ZM346.158 382.659L247.602 399.594V359.594L346.158 342.659V382.659ZM356.013 380.965L454.569 364.03V324.03L356.013 340.965V380.965ZM779.803 308.145L681.247 325.08V285.08L779.803 268.145V308.145ZM671.391 286.773V326.773L572.836 343.708V303.708L671.391 286.773ZM562.98 305.402V345.402L464.425 362.337V322.337L562.98 305.402ZM833.023 299L789.658 306.451V266.451L833.023 259V299Z" fill="#D27272"/>
</svg>
