<svg width="862" height="686" viewBox="0 0 862 686" fill="none" xmlns="http://www.w3.org/2000/svg">
<path d="M84 328L833 199.362V209.37L84 338.009V328Z" fill="#D9D9D9"/>
<path d="M84 378.043L833 249.404V259.413L84 388.051V378.043Z" fill="#D9D9D9"/>
<path d="M84 177.874L833 49.2355V59.2439L84 187.882V177.874Z" fill="#D9D9D9"/>
<path d="M84 478.127L833 349.489V359.497L84 488.135V478.127Z" fill="#D9D9D9"/>
<path d="M84 277.958L833 149.32V159.328L84 287.967V277.958Z" fill="#D9D9D9"/>
<path d="M84 578.211L833 449.573V459.581L84 588.22V578.211Z" fill="#D9D9D9"/>
<path d="M84 227.916L833 99.2777V109.286L84 237.924V227.916Z" fill="#D9D9D9"/>
<path d="M84 628.254L833 499.615V509.624L84 638.262V628.254Z" fill="#D9D9D9"/>
<path d="M84 528.169L833 399.531V409.539L84 538.178V528.169Z" fill="#D9D9D9"/>
<path d="M84 428.085L833 299.446V309.455L84 438.093V428.085Z" fill="#D9D9D9"/>
<path d="M399.655 83.6275L409.524 81.9325V121.966L399.655 123.661V83.6275Z" fill="#D9D9D9"/>
<path d="M725.323 27.695L735.192 26.0001V66.0338L725.323 67.7288V27.695Z" fill="#D9D9D9"/>
<path d="M616.768 46.3391L626.636 44.6442V84.678L616.768 86.3729V46.3391Z" fill="#D9D9D9"/>
<path d="M508.212 64.9834L518.081 63.2884V103.322L508.212 105.017V64.9834Z" fill="#D9D9D9"/>
<path d="M182.543 120.916L192.412 119.221V159.255L182.543 160.95V120.916Z" fill="#D9D9D9"/>
<path d="M291.1 102.272L300.968 100.577V140.611L291.1 142.305V102.272Z" fill="#D9D9D9"/>
<path d="M399.655 183.712L409.524 182.017V222.051L399.655 223.746V183.712Z" fill="#D9D9D9"/>
<path d="M725.323 127.779L735.192 126.084V166.118L725.323 167.813V127.779Z" fill="#D9D9D9"/>
<path d="M616.768 146.423L626.636 144.729V184.762L616.768 186.457V146.423Z" fill="#D9D9D9"/>
<path d="M508.212 165.068L518.081 163.373V203.407L508.212 205.101V165.068Z" fill="#D9D9D9"/>
<path d="M182.543 221L192.412 219.305V259.339L182.543 261.034V221Z" fill="#D9D9D9"/>
<path d="M291.1 202.356L300.968 200.661V240.695L291.1 242.39V202.356Z" fill="#D9D9D9"/>
<path d="M399.655 283.796L409.524 282.101V322.135L399.655 323.83V283.796Z" fill="#D9D9D9"/>
<path d="M725.323 227.864L735.192 226.169V266.203L725.323 267.898V227.864Z" fill="#D9D9D9"/>
<path d="M616.768 246.508L626.636 244.813V284.847L616.768 286.542V246.508Z" fill="#D9D9D9"/>
<path d="M508.212 265.152L518.081 263.457V303.491L508.212 305.186V265.152Z" fill="#D9D9D9"/>
<path d="M182.543 321.085L192.412 319.39V359.423L182.543 361.118V321.085Z" fill="#D9D9D9"/>
<path d="M291.1 302.441L300.968 300.746V340.779L291.1 342.474V302.441Z" fill="#D9D9D9"/>
<path d="M399.655 383.881L409.524 382.186V422.219L399.655 423.914V383.881Z" fill="#D9D9D9"/>
<path d="M725.323 327.948L735.192 326.253V366.287L725.323 367.982V327.948Z" fill="#D9D9D9"/>
<path d="M616.768 346.592L626.636 344.897V384.931L616.768 386.626V346.592Z" fill="#D9D9D9"/>
<path d="M508.212 365.236L518.081 363.542V403.575L508.212 405.27V365.236Z" fill="#D9D9D9"/>
<path d="M182.543 421.169L192.412 419.474V459.508L182.543 461.203V421.169Z" fill="#D9D9D9"/>
<path d="M291.1 402.525L300.968 400.83V440.864L291.1 442.559V402.525Z" fill="#D9D9D9"/>
<path d="M399.655 483.965L409.524 482.27V522.304L399.655 523.999V483.965Z" fill="#D9D9D9"/>
<path d="M725.323 428.033L735.192 426.338V466.371L725.323 468.066V428.033Z" fill="#D9D9D9"/>
<path d="M616.768 446.677L626.636 444.982V485.015L616.768 486.71V446.677Z" fill="#D9D9D9"/>
<path d="M508.212 465.321L518.081 463.626V503.66L508.212 505.355V465.321Z" fill="#D9D9D9"/>
<path d="M182.543 521.253L192.412 519.558V559.592L182.543 561.287V521.253Z" fill="#D9D9D9"/>
<path d="M291.1 502.609L300.968 500.914V540.948L291.1 542.643V502.609Z" fill="#D9D9D9"/>
<path d="M399.655 584.049L409.524 582.354V622.388L399.655 624.083V584.049Z" fill="#D9D9D9"/>
<path d="M725.323 528.117L735.192 526.422V566.456L725.323 568.151V528.117Z" fill="#D9D9D9"/>
<path d="M616.768 546.761L626.636 545.066V585.1L616.768 586.795V546.761Z" fill="#D9D9D9"/>
<path d="M508.212 565.405L518.081 563.71V603.744L508.212 605.439V565.405Z" fill="#D9D9D9"/>
<path d="M182.543 621.338L192.412 619.643V659.677L182.543 661.371V621.338Z" fill="#D9D9D9"/>
<path d="M291.1 602.694L300.968 600.999V641.032L291.1 642.727V602.694Z" fill="#D9D9D9"/>
<path d="M129.252 180.111L139.121 178.416V218.449L129.252 220.144V180.111Z" fill="#D9D9D9"/>
<path d="M454.92 124.178L464.789 122.483V162.517L454.92 164.212V124.178Z" fill="#D9D9D9"/>
<path d="M780.589 68.2455L794.405 65.8726V105.906L780.589 108.279V68.2455Z" fill="#D9D9D9"/>
<path d="M672.032 86.8896L681.901 85.1947V125.228L672.032 126.923V86.8896Z" fill="#D9D9D9"/>
<path d="M563.476 105.534L573.344 103.839V143.873L563.476 145.568V105.534Z" fill="#D9D9D9"/>
<path d="M237.809 161.466L247.677 159.771V199.805L237.809 201.5V161.466Z" fill="#D9D9D9"/>
<path d="M346.363 142.822L356.232 141.127V181.161L346.363 182.856V142.822Z" fill="#D9D9D9"/>
<path d="M129.252 280.195L139.121 278.5V318.534L129.252 320.229V280.195Z" fill="#D9D9D9"/>
<path d="M454.92 224.262L464.789 222.567V262.601L454.92 264.296V224.262Z" fill="#D9D9D9"/>
<path d="M780.589 168.33L790.458 166.635V206.669L780.589 208.364V168.33Z" fill="#D9D9D9"/>
<path d="M672.032 186.974L681.901 185.279V225.313L672.032 227.008V186.974Z" fill="#D9D9D9"/>
<path d="M563.476 205.618L573.344 203.923V243.957L563.476 245.652V205.618Z" fill="#D9D9D9"/>
<path d="M237.809 261.551L247.677 259.856V299.89L237.809 301.584V261.551Z" fill="#D9D9D9"/>
<path d="M346.363 242.907L356.232 241.212V281.245L346.363 282.94V242.907Z" fill="#D9D9D9"/>
<path d="M129.252 380.279L139.121 378.584V418.618L129.252 420.313V380.279Z" fill="#D9D9D9"/>
<path d="M454.92 324.347L464.789 322.652V362.686L454.92 364.381V324.347Z" fill="#D9D9D9"/>
<path d="M780.589 268.414L790.458 266.72V306.753L780.589 308.448V268.414Z" fill="#D9D9D9"/>
<path d="M672.032 287.058L681.901 285.364V325.397L672.032 327.092V287.058Z" fill="#D9D9D9"/>
<path d="M563.476 305.703L573.344 304.008V344.041L563.476 345.736V305.703Z" fill="#D9D9D9"/>
<path d="M237.809 361.635L247.677 359.94V399.974L237.809 401.669V361.635Z" fill="#D9D9D9"/>
<path d="M346.363 342.991L356.232 341.296V381.33L346.363 383.025V342.991Z" fill="#D9D9D9"/>
<path d="M129.252 480.364L139.121 478.669V518.703L129.252 520.398V480.364Z" fill="#D9D9D9"/>
<path d="M454.92 424.431L464.789 422.736V462.77L454.92 464.465V424.431Z" fill="#D9D9D9"/>
<path d="M780.589 368.499L790.458 366.804V406.838L780.589 408.533V368.499Z" fill="#D9D9D9"/>
<path d="M672.032 387.143L681.901 385.448V425.482L672.032 427.177V387.143Z" fill="#D9D9D9"/>
<path d="M563.476 405.787L573.344 404.092V444.126L563.476 445.821V405.787Z" fill="#D9D9D9"/>
<path d="M237.809 461.72L247.677 460.025V500.058L237.809 501.753V461.72Z" fill="#D9D9D9"/>
<path d="M346.363 443.075L356.232 441.381V481.414L346.363 483.109V443.075Z" fill="#D9D9D9"/>
<path d="M128.265 580.618L138.133 578.923V618.956L128.265 620.651V580.618Z" fill="#D9D9D9"/>
<path d="M453.934 524.685L463.802 522.99V563.024L453.934 564.719V524.685Z" fill="#D9D9D9"/>
<path d="M779.602 468.753L789.47 467.058V507.091L779.602 508.786V468.753Z" fill="#D9D9D9"/>
<path d="M671.045 487.397L680.914 485.702V525.736L671.045 527.43V487.397Z" fill="#D9D9D9"/>
<path d="M562.488 506.041L572.357 504.346V544.38L562.488 546.075V506.041Z" fill="#D9D9D9"/>
<path d="M236.821 561.973L246.69 560.278V600.312L236.821 602.007V561.973Z" fill="#D9D9D9"/>
<path d="M345.377 543.329L355.246 541.634V581.668L345.377 583.363V543.329Z" fill="#D9D9D9"/>
</svg>
