<svg width="862" height="686" viewBox="0 0 862 686" fill="none" xmlns="http://www.w3.org/2000/svg">
<path d="M465.599 348.846L857.957 281.427V538.747L465.599 606.288V348.846Z" fill="#EED9B0"/>
<path d="M448 347.065L465.599 348.967V606.288L448 601.056V347.065Z" fill="#DEDEDE"/>
<path d="M448 347.065L842.78 280L858 281.427L465.599 348.968L448 347.065Z" fill="#ACACAC"/>
<path d="M465.599 85.8465L857.957 18.4269V275.747L465.599 343.288V85.8465Z" fill="#EED9B0"/>
<path d="M448 84.065L465.599 85.9675V343.288L448 338.056V84.065Z" fill="#DEDEDE"/>
<path d="M448 84.065L842.78 17L858 18.4269L465.599 85.9675L448 84.065Z" fill="#ACACAC"/>
<path d="M66.5986 153.846L458.957 86.4269V343.747L66.5986 411.288V153.846Z" fill="#EED9B0"/>
<path d="M49 152.065L66.5986 153.968V411.288L49 406.056V152.065Z" fill="#DEDEDE"/>
<path d="M49 152.065L443.78 85L459 86.4269L66.5986 153.968L49 152.065Z" fill="#ACACAC"/>
<path d="M66.5986 416.846L458.957 349.427V606.747L66.5986 674.288V416.846Z" fill="#EED9B0"/>
<path d="M49 415.065L66.5986 416.967V674.288L49 669.056V415.065Z" fill="#DEDEDE"/>
<path d="M49 415.065L443.78 348L459 349.427L66.5986 416.968L49 415.065Z" fill="#ACACAC"/>
</svg>
