<svg width="862" height="686" viewBox="0 0 862 686" fill="none" xmlns="http://www.w3.org/2000/svg">
<line y1="-4" x2="534" y2="-4" transform="matrix(0.00820296 0.999966 -0.985556 0.16935 127.96 132.932)" stroke="#646464" stroke-width="8"/>
<line y1="-1" x2="534" y2="-1" transform="matrix(0.00820291 0.999966 -0.985556 0.169349 127.96 132.932)" stroke="black" stroke-opacity="0.4" stroke-width="2"/>
<line y1="-4" x2="534" y2="-4" transform="matrix(0.00820296 0.999966 -0.985556 0.16935 287.62 105.497)" stroke="#646464" stroke-width="8"/>
<line y1="-1" x2="534" y2="-1" transform="matrix(0.00820291 0.999966 -0.985556 0.169349 287.62 105.497)" stroke="black" stroke-opacity="0.4" stroke-width="2"/>
<line y1="-4" x2="534" y2="-4" transform="matrix(0.00820296 0.999966 -0.985556 0.16935 447.28 78.0624)" stroke="#646464" stroke-width="8"/>
<line y1="-1" x2="534" y2="-1" transform="matrix(0.00820291 0.999966 -0.985556 0.169349 447.28 78.0624)" stroke="black" stroke-opacity="0.4" stroke-width="2"/>
<line y1="-4" x2="534" y2="-4" transform="matrix(0.00820296 0.999966 -0.985556 0.16935 606.94 50.6278)" stroke="#646464" stroke-width="8"/>
<line y1="-1" x2="534" y2="-1" transform="matrix(0.00820291 0.999966 -0.985556 0.169349 606.94 50.6278)" stroke="black" stroke-opacity="0.4" stroke-width="2"/>
<line y1="-4" x2="534" y2="-4" transform="matrix(0.00820296 0.999966 -0.985556 0.16935 766.601 23.1932)" stroke="#646464" stroke-width="8"/>
<line y1="-1" x2="534" y2="-1" transform="matrix(0.00820291 0.999966 -0.985556 0.169349 766.601 23.1932)" stroke="black" stroke-opacity="0.4" stroke-width="2"/>
<line y1="-4" x2="534" y2="-4" transform="matrix(0.00820296 0.999966 -0.985556 0.16935 92.4805 139.028)" stroke="#646464" stroke-width="8"/>
<line y1="-1" x2="534" y2="-1" transform="matrix(0.00820291 0.999966 -0.985556 0.169349 92.4805 139.028)" stroke="black" stroke-opacity="0.4" stroke-width="2"/>
<line y1="-4" x2="534" y2="-4" transform="matrix(0.00820296 0.999966 -0.985556 0.16935 252.14 111.594)" stroke="#646464" stroke-width="8"/>
<line y1="-1" x2="534" y2="-1" transform="matrix(0.00820291 0.999966 -0.985556 0.169349 252.14 111.594)" stroke="black" stroke-opacity="0.4" stroke-width="2"/>
<line y1="-4" x2="534" y2="-4" transform="matrix(0.00820296 0.999966 -0.985556 0.16935 411.8 84.159)" stroke="#646464" stroke-width="8"/>
<line y1="-1" x2="534" y2="-1" transform="matrix(0.00820291 0.999966 -0.985556 0.169349 411.8 84.159)" stroke="black" stroke-opacity="0.4" stroke-width="2"/>
<line y1="-4" x2="534" y2="-4" transform="matrix(0.00820296 0.999966 -0.985556 0.16935 571.46 56.7244)" stroke="#646464" stroke-width="8"/>
<line y1="-1" x2="534" y2="-1" transform="matrix(0.00820291 0.999966 -0.985556 0.169349 571.46 56.7244)" stroke="black" stroke-opacity="0.4" stroke-width="2"/>
<line y1="-4" x2="534" y2="-4" transform="matrix(0.00820296 0.999966 -0.985556 0.16935 731.12 29.2897)" stroke="#646464" stroke-width="8"/>
<line y1="-1" x2="534" y2="-1" transform="matrix(0.00820291 0.999966 -0.985556 0.169349 731.12 29.2897)" stroke="black" stroke-opacity="0.4" stroke-width="2"/>
<line y1="-4" x2="534" y2="-4" transform="matrix(0.00820296 0.999966 -0.985556 0.16935 110.22 135.98)" stroke="#646464" stroke-width="8"/>
<line y1="-1" x2="534" y2="-1" transform="matrix(0.00820291 0.999966 -0.985556 0.169349 110.22 135.98)" stroke="black" stroke-opacity="0.4" stroke-width="2"/>
<line y1="-4" x2="534" y2="-4" transform="matrix(0.00820296 0.999966 -0.985556 0.16935 269.88 108.545)" stroke="#646464" stroke-width="8"/>
<line y1="-1" x2="534" y2="-1" transform="matrix(0.00820291 0.999966 -0.985556 0.169349 269.88 108.545)" stroke="black" stroke-opacity="0.4" stroke-width="2"/>
<line y1="-4" x2="534" y2="-4" transform="matrix(0.00820296 0.999966 -0.985556 0.16935 429.54 81.1107)" stroke="#646464" stroke-width="8"/>
<line y1="-1" x2="534" y2="-1" transform="matrix(0.00820291 0.999966 -0.985556 0.169349 429.54 81.1107)" stroke="black" stroke-opacity="0.4" stroke-width="2"/>
<line y1="-4" x2="534" y2="-4" transform="matrix(0.00820296 0.999966 -0.985556 0.16935 589.2 53.6761)" stroke="#646464" stroke-width="8"/>
<line y1="-1" x2="534" y2="-1" transform="matrix(0.00820291 0.999966 -0.985556 0.169349 589.2 53.6761)" stroke="black" stroke-opacity="0.4" stroke-width="2"/>
<line y1="-4" x2="534" y2="-4" transform="matrix(0.00820296 0.999966 -0.985556 0.16935 748.86 26.2414)" stroke="#646464" stroke-width="8"/>
<line y1="-1" x2="534" y2="-1" transform="matrix(0.00820291 0.999966 -0.985556 0.169349 748.86 26.2414)" stroke="black" stroke-opacity="0.4" stroke-width="2"/>
<line y1="-4" x2="534" y2="-4" transform="matrix(0.00820296 0.999966 -0.985556 0.16935 74.7402 142.076)" stroke="#646464" stroke-width="8"/>
<line y1="-1" x2="534" y2="-1" transform="matrix(0.00820291 0.999966 -0.985556 0.169349 74.7402 142.076)" stroke="black" stroke-opacity="0.4" stroke-width="2"/>
<line y1="-4" x2="534" y2="-4" transform="matrix(0.00820296 0.999966 -0.985556 0.16935 234.4 114.642)" stroke="#646464" stroke-width="8"/>
<line y1="-1" x2="534" y2="-1" transform="matrix(0.00820291 0.999966 -0.985556 0.169349 234.4 114.642)" stroke="black" stroke-opacity="0.4" stroke-width="2"/>
<line y1="-4" x2="534" y2="-4" transform="matrix(0.00820296 0.999966 -0.985556 0.16935 394.061 87.2073)" stroke="#646464" stroke-width="8"/>
<line y1="-1" x2="534" y2="-1" transform="matrix(0.00820291 0.999966 -0.985556 0.169349 394.061 87.2073)" stroke="black" stroke-opacity="0.4" stroke-width="2"/>
<line y1="-4" x2="534" y2="-4" transform="matrix(0.00820296 0.999966 -0.985556 0.16935 553.721 59.7726)" stroke="#646464" stroke-width="8"/>
<line y1="-1" x2="534" y2="-1" transform="matrix(0.00820291 0.999966 -0.985556 0.169349 553.721 59.7726)" stroke="black" stroke-opacity="0.4" stroke-width="2"/>
<line y1="-4" x2="534" y2="-4" transform="matrix(0.00820296 0.999966 -0.985556 0.16935 713.38 32.338)" stroke="#646464" stroke-width="8"/>
<line y1="-1" x2="534" y2="-1" transform="matrix(0.00820291 0.999966 -0.985556 0.169349 713.38 32.338)" stroke="black" stroke-opacity="0.4" stroke-width="2"/>
<line y1="-4" x2="534" y2="-4" transform="matrix(0.00820296 0.999966 -0.985556 0.16935 57 145.125)" stroke="#646464" stroke-width="8"/>
<line y1="-1" x2="534" y2="-1" transform="matrix(0.00820291 0.999966 -0.985556 0.169349 57 145.125)" stroke="black" stroke-opacity="0.4" stroke-width="2"/>
<line y1="-4" x2="534" y2="-4" transform="matrix(0.00820296 0.999966 -0.985556 0.16935 216.66 117.69)" stroke="#646464" stroke-width="8"/>
<line y1="-1" x2="534" y2="-1" transform="matrix(0.00820291 0.999966 -0.985556 0.169349 216.66 117.69)" stroke="black" stroke-opacity="0.4" stroke-width="2"/>
<line y1="-4" x2="534" y2="-4" transform="matrix(0.00820296 0.999966 -0.985556 0.16935 376.32 90.2556)" stroke="#646464" stroke-width="8"/>
<line y1="-1" x2="534" y2="-1" transform="matrix(0.00820291 0.999966 -0.985556 0.169349 376.32 90.2556)" stroke="black" stroke-opacity="0.4" stroke-width="2"/>
<line y1="-4" x2="534" y2="-4" transform="matrix(0.00820296 0.999966 -0.985556 0.16935 535.98 62.8209)" stroke="#646464" stroke-width="8"/>
<line y1="-1" x2="534" y2="-1" transform="matrix(0.00820291 0.999966 -0.985556 0.169349 535.98 62.8209)" stroke="black" stroke-opacity="0.4" stroke-width="2"/>
<line y1="-4" x2="534" y2="-4" transform="matrix(0.00820296 0.999966 -0.985556 0.16935 695.641 35.3863)" stroke="#646464" stroke-width="8"/>
<line y1="-1" x2="534" y2="-1" transform="matrix(0.00820291 0.999966 -0.985556 0.169349 695.641 35.3863)" stroke="black" stroke-opacity="0.4" stroke-width="2"/>
<line y1="-4" x2="534" y2="-4" transform="matrix(0.00820296 0.999966 -0.985556 0.16935 145.7 129.883)" stroke="#646464" stroke-width="8"/>
<line y1="-1" x2="534" y2="-1" transform="matrix(0.00820291 0.999966 -0.985556 0.169349 145.7 129.883)" stroke="black" stroke-opacity="0.4" stroke-width="2"/>
<line y1="-4" x2="534" y2="-4" transform="matrix(0.00820296 0.999966 -0.985556 0.16935 305.36 102.449)" stroke="#646464" stroke-width="8"/>
<line y1="-1" x2="534" y2="-1" transform="matrix(0.00820291 0.999966 -0.985556 0.169349 305.36 102.449)" stroke="black" stroke-opacity="0.4" stroke-width="2"/>
<line y1="-4" x2="534" y2="-4" transform="matrix(0.00820296 0.999966 -0.985556 0.16935 465.021 75.0141)" stroke="#646464" stroke-width="8"/>
<line y1="-1" x2="534" y2="-1" transform="matrix(0.00820291 0.999966 -0.985556 0.169349 465.021 75.0141)" stroke="black" stroke-opacity="0.4" stroke-width="2"/>
<line y1="-4" x2="534" y2="-4" transform="matrix(0.00820296 0.999966 -0.985556 0.16935 624.681 47.5795)" stroke="#646464" stroke-width="8"/>
<line y1="-1" x2="534" y2="-1" transform="matrix(0.00820291 0.999966 -0.985556 0.169349 624.681 47.5795)" stroke="black" stroke-opacity="0.4" stroke-width="2"/>
<line y1="-4" x2="534" y2="-4" transform="matrix(0.00820296 0.999966 -0.985556 0.16935 784.341 20.1449)" stroke="#646464" stroke-width="8"/>
<line y1="-1" x2="534" y2="-1" transform="matrix(0.00820291 0.999966 -0.985556 0.169349 784.341 20.1449)" stroke="black" stroke-opacity="0.4" stroke-width="2"/>
<line y1="-4" x2="534" y2="-4" transform="matrix(0.00820296 0.999966 -0.985556 0.16935 163.44 126.835)" stroke="#646464" stroke-width="8"/>
<line y1="-1" x2="534" y2="-1" transform="matrix(0.00820291 0.999966 -0.985556 0.169349 163.44 126.835)" stroke="black" stroke-opacity="0.4" stroke-width="2"/>
<line y1="-4" x2="534" y2="-4" transform="matrix(0.00820296 0.999966 -0.985556 0.16935 323.101 99.4004)" stroke="#646464" stroke-width="8"/>
<line y1="-1" x2="534" y2="-1" transform="matrix(0.00820291 0.999966 -0.985556 0.169349 323.101 99.4004)" stroke="black" stroke-opacity="0.4" stroke-width="2"/>
<line y1="-4" x2="534" y2="-4" transform="matrix(0.00820296 0.999966 -0.985556 0.16935 482.76 71.9658)" stroke="#646464" stroke-width="8"/>
<line y1="-1" x2="534" y2="-1" transform="matrix(0.00820291 0.999966 -0.985556 0.169349 482.76 71.9658)" stroke="black" stroke-opacity="0.4" stroke-width="2"/>
<line y1="-4" x2="534" y2="-4" transform="matrix(0.00820296 0.999966 -0.985556 0.16935 642.42 44.5312)" stroke="#646464" stroke-width="8"/>
<line y1="-1" x2="534" y2="-1" transform="matrix(0.00820291 0.999966 -0.985556 0.169349 642.42 44.5312)" stroke="black" stroke-opacity="0.4" stroke-width="2"/>
<line y1="-4" x2="534" y2="-4" transform="matrix(0.00820296 0.999966 -0.985556 0.16935 802.08 17.0966)" stroke="#646464" stroke-width="8"/>
<line y1="-1" x2="534" y2="-1" transform="matrix(0.00820291 0.999966 -0.985556 0.169349 802.08 17.0966)" stroke="black" stroke-opacity="0.4" stroke-width="2"/>
<line y1="-4" x2="534" y2="-4" transform="matrix(0.00820296 0.999966 -0.985556 0.16935 181.18 123.787)" stroke="#646464" stroke-width="8"/>
<line y1="-1" x2="534" y2="-1" transform="matrix(0.00820291 0.999966 -0.985556 0.169349 181.18 123.787)" stroke="black" stroke-opacity="0.4" stroke-width="2"/>
<line y1="-4" x2="534" y2="-4" transform="matrix(0.00820296 0.999966 -0.985556 0.16935 340.84 96.3521)" stroke="#646464" stroke-width="8"/>
<line y1="-1" x2="534" y2="-1" transform="matrix(0.00820291 0.999966 -0.985556 0.169349 340.84 96.3521)" stroke="black" stroke-opacity="0.4" stroke-width="2"/>
<line y1="-4" x2="534" y2="-4" transform="matrix(0.00820296 0.999966 -0.985556 0.16935 500.5 68.9175)" stroke="#646464" stroke-width="8"/>
<line y1="-1" x2="534" y2="-1" transform="matrix(0.00820291 0.999966 -0.985556 0.169349 500.5 68.9175)" stroke="black" stroke-opacity="0.4" stroke-width="2"/>
<line y1="-4" x2="534" y2="-4" transform="matrix(0.00820296 0.999966 -0.985556 0.16935 660.16 41.4829)" stroke="#646464" stroke-width="8"/>
<line y1="-1" x2="534" y2="-1" transform="matrix(0.00820291 0.999966 -0.985556 0.169349 660.16 41.4829)" stroke="black" stroke-opacity="0.4" stroke-width="2"/>
<line y1="-4" x2="534" y2="-4" transform="matrix(0.00820296 0.999966 -0.985556 0.16935 819.82 14.0483)" stroke="#646464" stroke-width="8"/>
<line y1="-1" x2="534" y2="-1" transform="matrix(0.00820291 0.999966 -0.985556 0.169349 819.82 14.0483)" stroke="black" stroke-opacity="0.4" stroke-width="2"/>
<line y1="-4" x2="534" y2="-4" transform="matrix(0.00820296 0.999966 -0.985556 0.16935 198.92 120.738)" stroke="#646464" stroke-width="8"/>
<line y1="-1" x2="534" y2="-1" transform="matrix(0.00820291 0.999966 -0.985556 0.169349 198.92 120.738)" stroke="black" stroke-opacity="0.4" stroke-width="2"/>
<line y1="-4" x2="534" y2="-4" transform="matrix(0.00820296 0.999966 -0.985556 0.16935 358.58 93.3038)" stroke="#646464" stroke-width="8"/>
<line y1="-1" x2="534" y2="-1" transform="matrix(0.00820291 0.999966 -0.985556 0.169349 358.58 93.3038)" stroke="black" stroke-opacity="0.4" stroke-width="2"/>
<line y1="-4" x2="534" y2="-4" transform="matrix(0.00820296 0.999966 -0.985556 0.16935 518.24 65.8692)" stroke="#646464" stroke-width="8"/>
<line y1="-1" x2="534" y2="-1" transform="matrix(0.00820291 0.999966 -0.985556 0.169349 518.24 65.8692)" stroke="black" stroke-opacity="0.4" stroke-width="2"/>
<line y1="-4" x2="534" y2="-4" transform="matrix(0.00820296 0.999966 -0.985556 0.16935 677.9 38.4346)" stroke="#646464" stroke-width="8"/>
<line y1="-1" x2="534" y2="-1" transform="matrix(0.00820291 0.999966 -0.985556 0.169349 677.9 38.4346)" stroke="black" stroke-opacity="0.4" stroke-width="2"/>
<line y1="-4" x2="534" y2="-4" transform="matrix(0.00820296 0.999966 -0.985556 0.16935 837.561 11)" stroke="#646464" stroke-width="8"/>
<line y1="-1" x2="534" y2="-1" transform="matrix(0.00820291 0.999966 -0.985556 0.169349 837.561 11)" stroke="black" stroke-opacity="0.4" stroke-width="2"/>
</svg>
