<svg width="862" height="686" viewBox="0 0 862 686" fill="none" xmlns="http://www.w3.org/2000/svg">
<g clip-path="url(#clip0_292_2)">
<line y1="-1" x2="859.413" y2="-1" transform="matrix(0.985556 -0.16935 0 1 41 369.958)" stroke="#313334" stroke-width="2"/>
<line y1="-1" x2="529.105" y2="-1" transform="matrix(-3.78137e-08 -1 0.985556 -0.16935 209 651.778)" stroke="#313334" stroke-width="2"/>
<line y1="-1" x2="529.105" y2="-1" transform="matrix(-3.78137e-08 -1 0.985556 -0.16935 629 579.609)" stroke="#313334" stroke-width="2"/>
<line y1="-1" x2="859.413" y2="-1" transform="matrix(0.985556 -0.16935 0 1 41 615.238)" stroke="#313334" stroke-width="2"/>
<line y1="-1" x2="529.105" y2="-1" transform="matrix(-3.78137e-08 -1 0.985556 -0.16935 419 615.694)" stroke="#313334" stroke-width="2"/>
<line y1="-1" x2="529.105" y2="-1" transform="matrix(-3.78137e-08 -1 0.985556 -0.16935 839 543.525)" stroke="#313334" stroke-width="2"/>
<line y1="-1" x2="859.413" y2="-1" transform="matrix(0.985556 -0.16935 0 1 41 299.877)" stroke="#313334" stroke-width="2"/>
<line y1="-1" x2="529.105" y2="-1" transform="matrix(-3.78137e-08 -1 0.985556 -0.16935 149 662.088)" stroke="#313334" stroke-width="2"/>
<line y1="-1" x2="529.105" y2="-1" transform="matrix(-3.78137e-08 -1 0.985556 -0.16935 569 589.919)" stroke="#313334" stroke-width="2"/>
<line y1="-1" x2="859.413" y2="-1" transform="matrix(0.985556 -0.16935 0 1 41 545.158)" stroke="#313334" stroke-width="2"/>
<line y1="-1" x2="529.105" y2="-1" transform="matrix(-3.78137e-08 -1 0.985556 -0.16935 359 626.004)" stroke="#313334" stroke-width="2"/>
<line y1="-1" x2="529.105" y2="-1" transform="matrix(-3.78137e-08 -1 0.985556 -0.16935 779 553.834)" stroke="#313334" stroke-width="2"/>
<line y1="-1" x2="859.413" y2="-1" transform="matrix(0.985556 -0.16935 0 1 41 264.837)" stroke="#313334" stroke-width="2"/>
<line y1="-1" x2="529.105" y2="-1" transform="matrix(-3.78137e-08 -1 0.985556 -0.16935 119 667.243)" stroke="#313334" stroke-width="2"/>
<line y1="-1" x2="529.105" y2="-1" transform="matrix(-3.78137e-08 -1 0.985556 -0.16935 539 595.074)" stroke="#313334" stroke-width="2"/>
<line y1="-1" x2="859.413" y2="-1" transform="matrix(0.985556 -0.16935 0 1 41 510.118)" stroke="#313334" stroke-width="2"/>
<line y1="-1" x2="529.105" y2="-1" transform="matrix(-3.78137e-08 -1 0.985556 -0.16935 329 631.158)" stroke="#313334" stroke-width="2"/>
<line y1="-1" x2="529.105" y2="-1" transform="matrix(-3.78137e-08 -1 0.985556 -0.16935 749 558.989)" stroke="#313334" stroke-width="2"/>
<line y1="-1" x2="859.413" y2="-1" transform="matrix(0.985556 -0.16935 0 1 41 229.797)" stroke="#313334" stroke-width="2"/>
<line y1="-1" x2="529.105" y2="-1" transform="matrix(-3.78137e-08 -1 0.985556 -0.16935 88.999 672.398)" stroke="#313334" stroke-width="2"/>
<line y1="-1" x2="529.105" y2="-1" transform="matrix(-3.78137e-08 -1 0.985556 -0.16935 509 600.229)" stroke="#313334" stroke-width="2"/>
<line y1="-1" x2="859.413" y2="-1" transform="matrix(0.985556 -0.16935 0 1 41 475.078)" stroke="#313334" stroke-width="2"/>
<line y1="-1" x2="529.105" y2="-1" transform="matrix(-3.78137e-08 -1 0.985556 -0.16935 299 636.313)" stroke="#313334" stroke-width="2"/>
<line y1="-1" x2="529.105" y2="-1" transform="matrix(-3.78137e-08 -1 0.985556 -0.16935 719.001 564.144)" stroke="#313334" stroke-width="2"/>
<line y1="-1" x2="859.413" y2="-1" transform="matrix(0.985556 -0.16935 0 1 41 194.757)" stroke="#313334" stroke-width="2"/>
<line y1="-1" x2="529.105" y2="-1" transform="matrix(-3.78137e-08 -1 0.985556 -0.16935 58.999 677.553)" stroke="#313334" stroke-width="2"/>
<line y1="-1" x2="529.105" y2="-1" transform="matrix(-3.78137e-08 -1 0.985556 -0.16935 479 605.384)" stroke="#313334" stroke-width="2"/>
<line y1="-1" x2="859.413" y2="-1" transform="matrix(0.985556 -0.16935 0 1 41 440.038)" stroke="#313334" stroke-width="2"/>
<line y1="-1" x2="529.105" y2="-1" transform="matrix(-3.78137e-08 -1 0.985556 -0.16935 269.001 641.468)" stroke="#313334" stroke-width="2"/>
<line y1="-1" x2="529.105" y2="-1" transform="matrix(-3.78137e-08 -1 0.985556 -0.16935 689 569.299)" stroke="#313334" stroke-width="2"/>
<line y1="-1" x2="859.413" y2="-1" transform="matrix(0.985556 -0.16935 0 1 41 404.998)" stroke="#313334" stroke-width="2"/>
<line y1="-1" x2="529.105" y2="-1" transform="matrix(-3.78137e-08 -1 0.985556 -0.16935 239 646.623)" stroke="#313334" stroke-width="2"/>
<line y1="-1" x2="529.105" y2="-1" transform="matrix(-3.78137e-08 -1 0.985556 -0.16935 659.001 574.454)" stroke="#313334" stroke-width="2"/>
<line y1="-1" x2="859.413" y2="-1" transform="matrix(0.985556 -0.16935 0 1 41 650.278)" stroke="#313334" stroke-width="2"/>
<line y1="-1" x2="529.105" y2="-1" transform="matrix(-3.78137e-08 -1 0.985556 -0.16935 449 610.539)" stroke="#313334" stroke-width="2"/>
<line y1="-1" x2="859.413" y2="-1" transform="matrix(0.985556 -0.16935 0 1 41 334.917)" stroke="#313334" stroke-width="2"/>
<line y1="-1" x2="529.105" y2="-1" transform="matrix(-3.78137e-08 -1 0.985556 -0.16935 179.001 656.933)" stroke="#313334" stroke-width="2"/>
<line y1="-1" x2="529.105" y2="-1" transform="matrix(-3.78137e-08 -1 0.985556 -0.16935 599 584.764)" stroke="#313334" stroke-width="2"/>
<line y1="-1" x2="859.413" y2="-1" transform="matrix(0.985556 -0.16935 0 1 41 580.198)" stroke="#313334" stroke-width="2"/>
<line y1="-1" x2="529.105" y2="-1" transform="matrix(-3.78137e-08 -1 0.985556 -0.16935 389 620.849)" stroke="#313334" stroke-width="2"/>
<line y1="-1" x2="529.105" y2="-1" transform="matrix(-3.78137e-08 -1 0.985556 -0.16935 809 548.679)" stroke="#313334" stroke-width="2"/>
</g>
<defs>
<clipPath id="clip0_292_2">
<rect width="862" height="686" fill="white"/>
</clipPath>
</defs>
</svg>
