<svg width="862" height="683" viewBox="0 0 862 683" fill="none" xmlns="http://www.w3.org/2000/svg">
<g clip-path="url(#clip0_296_325)">
<g clip-path="url(#clip1_296_325)">
<path d="M34.1035 332.416L-870 204.983V214.983L34.1035 342.416V332.416Z" fill="#D9D9D9"/>
<path d="M34.1035 382.416L-870 254.983V264.983L34.1035 392.416V382.416Z" fill="#D9D9D9"/>
<path d="M34.1035 182.416L-870 54.9831V64.9831L34.1035 192.416V182.416Z" fill="#D9D9D9"/>
<path d="M34.1035 482.416L-870 354.983V364.983L34.1035 492.416V482.416Z" fill="#D9D9D9"/>
<path d="M34.1035 282.416L-870 154.983V164.983L34.1035 292.416V282.416Z" fill="#D9D9D9"/>
<path d="M34.1035 582.416L-870 454.983V464.983L34.1035 592.416V582.416Z" fill="#D9D9D9"/>
<path d="M34.1035 232.416L-870 104.983V114.983L34.1035 242.416V232.416Z" fill="#D9D9D9"/>
<path d="M34.1035 632.416L-870 504.983V514.983L34.1035 642.416V632.416Z" fill="#D9D9D9"/>
<path d="M34.1035 532.416L-870 404.983V414.983L34.1035 542.416V532.416Z" fill="#D9D9D9"/>
<path d="M34.1035 432.416L-870 304.983V314.983L34.1035 442.416V432.416Z" fill="#D9D9D9"/>
<path d="M34 332.722L863 190.274V200.274L34 342.722V332.722Z" fill="#D9D9D9"/>
<path d="M34 382.722L863 240.274V250.274L34 392.722V382.722Z" fill="#D9D9D9"/>
<path d="M34 182.722L863 40.2735V50.2735L34 192.722V182.722Z" fill="#D9D9D9"/>
<path d="M34 482.722L863 340.274V350.274L34 492.722V482.722Z" fill="#D9D9D9"/>
<path d="M34 282.722L863 140.274V150.274L34 292.722V282.722Z" fill="#D9D9D9"/>
<path d="M34 582.722L863 440.274V450.274L34 592.722V582.722Z" fill="#D9D9D9"/>
<path d="M34 232.722L863 90.2735V100.274L34 242.722V232.722Z" fill="#D9D9D9"/>
<path d="M34 632.722L863 490.274V500.274L34 642.722V632.722Z" fill="#D9D9D9"/>
<path d="M34 532.722L863 390.274V400.274L34 542.722V532.722Z" fill="#D9D9D9"/>
<path d="M34 432.722L863 290.274V300.274L34 442.722V432.722Z" fill="#D9D9D9"/>
<path d="M360.639 86.5949L370.793 84.8501V124.85L360.639 126.595V86.5949Z" fill="#D9D9D9"/>
<path d="M807.424 9.82315L817.579 8.07834V48.0783L807.424 49.8232V9.82315Z" fill="#D9D9D9"/>
<path d="M695.728 29.0161L705.882 27.2713V67.2713L695.728 69.0161V29.0161Z" fill="#D9D9D9"/>
<path d="M584.032 48.209L594.186 46.4642V86.4642L584.032 88.209V48.209Z" fill="#D9D9D9"/>
<path d="M472.335 67.402L482.489 65.6572V105.657L472.335 107.402V67.402Z" fill="#D9D9D9"/>
<path d="M137.247 124.981L147.401 123.236V163.236L137.247 164.981V124.981Z" fill="#D9D9D9"/>
<path d="M248.942 105.788L259.097 104.043V144.043L248.942 145.788V105.788Z" fill="#D9D9D9"/>
<path d="M360.639 186.595L370.793 184.85V224.85L360.639 226.595V186.595Z" fill="#D9D9D9"/>
<path d="M807.424 109.823L817.579 108.078V148.078L807.424 149.823V109.823Z" fill="#D9D9D9"/>
<path d="M695.728 129.016L705.882 127.271V167.271L695.728 169.016V129.016Z" fill="#D9D9D9"/>
<path d="M584.032 148.209L594.186 146.464V186.464L584.032 188.209V148.209Z" fill="#D9D9D9"/>
<path d="M472.335 167.402L482.489 165.657V205.657L472.335 207.402V167.402Z" fill="#D9D9D9"/>
<path d="M137.247 224.981L147.401 223.236V263.236L137.247 264.981V224.981Z" fill="#D9D9D9"/>
<path d="M248.942 205.788L259.097 204.043V244.043L248.942 245.788V205.788Z" fill="#D9D9D9"/>
<path d="M360.639 286.595L370.793 284.85V324.85L360.639 326.595V286.595Z" fill="#D9D9D9"/>
<path d="M807.424 209.823L817.579 208.078V248.078L807.424 249.823V209.823Z" fill="#D9D9D9"/>
<path d="M695.728 229.016L705.882 227.271V267.271L695.728 269.016V229.016Z" fill="#D9D9D9"/>
<path d="M584.032 248.209L594.186 246.464V286.464L584.032 288.209V248.209Z" fill="#D9D9D9"/>
<path d="M472.335 267.402L482.489 265.657V305.657L472.335 307.402V267.402Z" fill="#D9D9D9"/>
<path d="M137.247 324.981L147.401 323.236V363.236L137.247 364.981V324.981Z" fill="#D9D9D9"/>
<path d="M248.942 305.788L259.097 304.043V344.043L248.942 345.788V305.788Z" fill="#D9D9D9"/>
<path d="M360.639 386.595L370.793 384.85V424.85L360.639 426.595V386.595Z" fill="#D9D9D9"/>
<path d="M807.424 309.823L817.579 308.078V348.078L807.424 349.823V309.823Z" fill="#D9D9D9"/>
<path d="M695.728 329.016L705.882 327.271V367.271L695.728 369.016V329.016Z" fill="#D9D9D9"/>
<path d="M584.032 348.209L594.186 346.464V386.464L584.032 388.209V348.209Z" fill="#D9D9D9"/>
<path d="M472.335 367.402L482.489 365.657V405.657L472.335 407.402V367.402Z" fill="#D9D9D9"/>
<path d="M137.247 424.981L147.401 423.236V463.236L137.247 464.981V424.981Z" fill="#D9D9D9"/>
<path d="M248.942 405.788L259.097 404.043V444.043L248.942 445.788V405.788Z" fill="#D9D9D9"/>
<path d="M360.639 486.595L370.793 484.85V524.85L360.639 526.595V486.595Z" fill="#D9D9D9"/>
<path d="M807.424 409.823L817.579 408.078V448.078L807.424 449.823V409.823Z" fill="#D9D9D9"/>
<path d="M695.728 429.016L705.882 427.271V467.271L695.728 469.016V429.016Z" fill="#D9D9D9"/>
<path d="M584.032 448.209L594.186 446.464V486.464L584.032 488.209V448.209Z" fill="#D9D9D9"/>
<path d="M472.335 467.402L482.489 465.657V505.657L472.335 507.402V467.402Z" fill="#D9D9D9"/>
<path d="M137.247 524.981L147.401 523.236V563.236L137.247 564.981V524.981Z" fill="#D9D9D9"/>
<path d="M248.942 505.788L259.097 504.043V544.043L248.942 545.788V505.788Z" fill="#D9D9D9"/>
<path d="M360.639 586.595L370.793 584.85V624.85L360.639 626.595V586.595Z" fill="#D9D9D9"/>
<path d="M807.424 509.823L817.579 508.079V548.079L807.424 549.823V509.823Z" fill="#D9D9D9"/>
<path d="M695.728 529.016L705.882 527.271V567.271L695.728 569.016V529.016Z" fill="#D9D9D9"/>
<path d="M584.032 548.209L594.186 546.464V586.464L584.032 588.209V548.209Z" fill="#D9D9D9"/>
<path d="M472.335 567.402L482.489 565.657V605.657L472.335 607.402V567.402Z" fill="#D9D9D9"/>
<path d="M137.247 624.981L147.401 623.236V663.236L137.247 664.981V624.981Z" fill="#D9D9D9"/>
<path d="M248.942 605.788L259.097 604.043V644.043L248.942 645.788V605.788Z" fill="#D9D9D9"/>
<path d="M82.4136 184.403L92.5678 182.658V222.658L82.4136 224.403V184.403Z" fill="#D9D9D9"/>
<path d="M417.503 126.824L427.657 125.079V165.079L417.503 166.824V126.824Z" fill="#D9D9D9"/>
<path d="M752.592 69.2452L762.743 67.5009V107.501L752.592 109.245V69.2452Z" fill="#D9D9D9"/>
<path d="M640.895 88.4382L651.049 86.6934V126.693L640.895 128.438V88.4382Z" fill="#D9D9D9"/>
<path d="M529.199 107.631L539.353 105.886V145.886L529.199 147.631V107.631Z" fill="#D9D9D9"/>
<path d="M194.11 165.21L204.264 163.465V203.465L194.11 205.21V165.21Z" fill="#D9D9D9"/>
<path d="M305.806 146.017L315.96 144.272V184.272L305.806 186.017V146.017Z" fill="#D9D9D9"/>
<path d="M82.4136 284.403L92.5678 282.658V322.658L82.4136 324.403V284.403Z" fill="#D9D9D9"/>
<path d="M417.503 226.824L427.657 225.079V265.079L417.503 266.824V226.824Z" fill="#D9D9D9"/>
<path d="M752.592 169.245L762.746 167.5V207.5L752.592 209.245V169.245Z" fill="#D9D9D9"/>
<path d="M640.895 188.438L651.049 186.693V226.693L640.895 228.438V188.438Z" fill="#D9D9D9"/>
<path d="M529.199 207.631L539.353 205.886V245.886L529.199 247.631V207.631Z" fill="#D9D9D9"/>
<path d="M194.11 265.21L204.264 263.465V303.465L194.11 305.21V265.21Z" fill="#D9D9D9"/>
<path d="M305.806 246.017L315.96 244.272V284.272L305.806 286.017V246.017Z" fill="#D9D9D9"/>
<path d="M82.4136 384.403L92.5678 382.658V422.658L82.4136 424.403V384.403Z" fill="#D9D9D9"/>
<path d="M417.503 326.824L427.657 325.079V365.079L417.503 366.824V326.824Z" fill="#D9D9D9"/>
<path d="M752.592 269.245L762.746 267.5V307.5L752.592 309.245V269.245Z" fill="#D9D9D9"/>
<path d="M640.895 288.438L651.049 286.693V326.693L640.895 328.438V288.438Z" fill="#D9D9D9"/>
<path d="M529.199 307.631L539.353 305.886V345.886L529.199 347.631V307.631Z" fill="#D9D9D9"/>
<path d="M194.11 365.21L204.264 363.465V403.465L194.11 405.21V365.21Z" fill="#D9D9D9"/>
<path d="M305.806 346.017L315.96 344.272V384.272L305.806 386.017V346.017Z" fill="#D9D9D9"/>
<path d="M82.4136 484.403L92.5678 482.658V522.658L82.4136 524.403V484.403Z" fill="#D9D9D9"/>
<path d="M417.503 426.824L427.657 425.079V465.079L417.503 466.824V426.824Z" fill="#D9D9D9"/>
<path d="M752.592 369.245L762.746 367.5V407.5L752.592 409.245V369.245Z" fill="#D9D9D9"/>
<path d="M640.895 388.438L651.049 386.693V426.693L640.895 428.438V388.438Z" fill="#D9D9D9"/>
<path d="M529.199 407.631L539.353 405.886V445.886L529.199 447.631V407.631Z" fill="#D9D9D9"/>
<path d="M194.11 465.21L204.264 463.465V503.465L194.11 505.21V465.21Z" fill="#D9D9D9"/>
<path d="M305.806 446.017L315.96 444.272V484.272L305.806 486.017V446.017Z" fill="#D9D9D9"/>
<path d="M81.3979 584.577L91.5522 582.833V622.833L81.3979 624.577V584.577Z" fill="#D9D9D9"/>
<path d="M416.487 526.999L426.641 525.254V565.254L416.487 566.999V526.999Z" fill="#D9D9D9"/>
<path d="M751.576 469.42L761.73 467.675V507.675L751.576 509.42V469.42Z" fill="#D9D9D9"/>
<path d="M639.88 488.613L650.034 486.868V526.868L639.88 528.613V488.613Z" fill="#D9D9D9"/>
<path d="M528.184 507.806L538.338 506.061V546.061L528.184 547.806V507.806Z" fill="#D9D9D9"/>
<path d="M193.095 565.384L203.249 563.64V603.64L193.095 605.384V565.384Z" fill="#D9D9D9"/>
<path d="M304.791 546.192L314.945 544.447V584.447L304.791 586.192V546.192Z" fill="#D9D9D9"/>
</g>
</g>
<defs>
<clipPath id="clip0_296_325">
<rect width="862" height="683" fill="white"/>
</clipPath>
<clipPath id="clip1_296_325">
<rect width="872" height="686" fill="white" transform="translate(-10 -1)"/>
</clipPath>
</defs>
</svg>
