<svg width="862" height="686" viewBox="0 0 862 686" fill="none" xmlns="http://www.w3.org/2000/svg">
<g clip-path="url(#clip0_296_450)">
<path d="M37.1035 335.416L-867 207.983V217.983L37.1035 345.416V335.416Z" fill="#D9D9D9"/>
<path d="M37.1035 385.416L-867 257.983V267.983L37.1035 395.416V385.416Z" fill="#D9D9D9"/>
<path d="M37.1035 185.416L-867 57.9831V67.9831L37.1035 195.416V185.416Z" fill="#D9D9D9"/>
<path d="M37.1035 485.416L-867 357.983V367.983L37.1035 495.416V485.416Z" fill="#D9D9D9"/>
<path d="M37.1035 285.416L-867 157.983V167.983L37.1035 295.416V285.416Z" fill="#D9D9D9"/>
<path d="M37.1035 585.416L-867 457.983V467.983L37.1035 595.416V585.416Z" fill="#D9D9D9"/>
<path d="M37.1035 235.416L-867 107.983V117.983L37.1035 245.416V235.416Z" fill="#D9D9D9"/>
<path d="M37.1035 635.416L-867 507.983V517.983L37.1035 645.416V635.416Z" fill="#D9D9D9"/>
<path d="M37.1035 535.416L-867 407.983V417.983L37.1035 545.416V535.416Z" fill="#D9D9D9"/>
<path d="M37.1035 435.416L-867 307.983V317.983L37.1035 445.416V435.416Z" fill="#D9D9D9"/>
<path d="M36.5498 335.174L897.734 187.195V197.195L36.5498 345.174V335.174Z" fill="#D9D9D9"/>
<path d="M36.5498 385.174L897.734 237.195V247.195L36.5498 395.174V385.174Z" fill="#D9D9D9"/>
<path d="M36.5498 185.174L897.734 37.1953V47.1953L36.5498 195.174V185.174Z" fill="#D9D9D9"/>
<path d="M36.5498 485.174L897.734 337.195V347.195L36.5498 495.174V485.174Z" fill="#D9D9D9"/>
<path d="M36.5498 285.174L897.734 137.195V147.195L36.5498 295.174V285.174Z" fill="#D9D9D9"/>
<path d="M36.5498 585.174L897.734 437.195V447.195L36.5498 595.174V585.174Z" fill="#D9D9D9"/>
<path d="M36.5498 235.174L897.734 87.1953V97.1953L36.5498 245.174V235.174Z" fill="#D9D9D9"/>
<path d="M36.5498 635.174L897.734 487.195V497.195L36.5498 645.174V635.174Z" fill="#D9D9D9"/>
<path d="M36.5498 535.174L897.734 387.195V397.195L36.5498 545.174V535.174Z" fill="#D9D9D9"/>
<path d="M36.5498 435.174L897.734 287.195V297.195L36.5498 445.174V435.174Z" fill="#D9D9D9"/>
<path d="M371.639 87.595L381.793 85.8502V125.85L371.639 127.595V87.595Z" fill="#D9D9D9"/>
<path d="M818.424 10.8231L828.579 9.07831V49.0783L818.424 50.8231V10.8231Z" fill="#D9D9D9"/>
<path d="M706.728 30.0161L716.882 28.2713V68.2713L706.728 70.0161V30.0161Z" fill="#D9D9D9"/>
<path d="M595.032 49.209L605.186 47.4642V87.4642L595.032 89.209V49.209Z" fill="#D9D9D9"/>
<path d="M483.335 68.402L493.489 66.6572V106.657L483.335 108.402V68.402Z" fill="#D9D9D9"/>
<path d="M148.247 125.981L158.401 124.236V164.236L148.247 165.981V125.981Z" fill="#D9D9D9"/>
<path d="M259.942 106.788L270.097 105.043V145.043L259.942 146.788V106.788Z" fill="#D9D9D9"/>
<path d="M371.639 187.595L381.793 185.85V225.85L371.639 227.595V187.595Z" fill="#D9D9D9"/>
<path d="M818.424 110.823L828.579 109.078V149.078L818.424 150.823V110.823Z" fill="#D9D9D9"/>
<path d="M706.728 130.016L716.882 128.271V168.271L706.728 170.016V130.016Z" fill="#D9D9D9"/>
<path d="M595.032 149.209L605.186 147.464V187.464L595.032 189.209V149.209Z" fill="#D9D9D9"/>
<path d="M483.335 168.402L493.489 166.657V206.657L483.335 208.402V168.402Z" fill="#D9D9D9"/>
<path d="M148.247 225.981L158.401 224.236V264.236L148.247 265.981V225.981Z" fill="#D9D9D9"/>
<path d="M259.942 206.788L270.097 205.043V245.043L259.942 246.788V206.788Z" fill="#D9D9D9"/>
<path d="M371.639 287.595L381.793 285.85V325.85L371.639 327.595V287.595Z" fill="#D9D9D9"/>
<path d="M818.424 210.823L828.579 209.078V249.078L818.424 250.823V210.823Z" fill="#D9D9D9"/>
<path d="M706.728 230.016L716.882 228.271V268.271L706.728 270.016V230.016Z" fill="#D9D9D9"/>
<path d="M595.032 249.209L605.186 247.464V287.464L595.032 289.209V249.209Z" fill="#D9D9D9"/>
<path d="M483.335 268.402L493.489 266.657V306.657L483.335 308.402V268.402Z" fill="#D9D9D9"/>
<path d="M148.247 325.981L158.401 324.236V364.236L148.247 365.981V325.981Z" fill="#D9D9D9"/>
<path d="M259.942 306.788L270.097 305.043V345.043L259.942 346.788V306.788Z" fill="#D9D9D9"/>
<path d="M371.639 387.595L381.793 385.85V425.85L371.639 427.595V387.595Z" fill="#D9D9D9"/>
<path d="M818.424 310.823L828.579 309.078V349.078L818.424 350.823V310.823Z" fill="#D9D9D9"/>
<path d="M706.728 330.016L716.882 328.271V368.271L706.728 370.016V330.016Z" fill="#D9D9D9"/>
<path d="M595.032 349.209L605.186 347.464V387.464L595.032 389.209V349.209Z" fill="#D9D9D9"/>
<path d="M483.335 368.402L493.489 366.657V406.657L483.335 408.402V368.402Z" fill="#D9D9D9"/>
<path d="M148.247 425.981L158.401 424.236V464.236L148.247 465.981V425.981Z" fill="#D9D9D9"/>
<path d="M259.942 406.788L270.097 405.043V445.043L259.942 446.788V406.788Z" fill="#D9D9D9"/>
<path d="M371.639 487.595L381.793 485.85V525.85L371.639 527.595V487.595Z" fill="#D9D9D9"/>
<path d="M818.424 410.823L828.579 409.078V449.078L818.424 450.823V410.823Z" fill="#D9D9D9"/>
<path d="M706.728 430.016L716.882 428.271V468.271L706.728 470.016V430.016Z" fill="#D9D9D9"/>
<path d="M595.032 449.209L605.186 447.464V487.464L595.032 489.209V449.209Z" fill="#D9D9D9"/>
<path d="M483.335 468.402L493.489 466.657V506.657L483.335 508.402V468.402Z" fill="#D9D9D9"/>
<path d="M148.247 525.981L158.401 524.236V564.236L148.247 565.981V525.981Z" fill="#D9D9D9"/>
<path d="M259.942 506.788L270.097 505.043V545.043L259.942 546.788V506.788Z" fill="#D9D9D9"/>
<path d="M371.639 587.595L381.793 585.85V625.85L371.639 627.595V587.595Z" fill="#D9D9D9"/>
<path d="M818.424 510.823L828.579 509.079V549.079L818.424 550.823V510.823Z" fill="#D9D9D9"/>
<path d="M706.728 530.016L716.882 528.271V568.271L706.728 570.016V530.016Z" fill="#D9D9D9"/>
<path d="M595.032 549.209L605.186 547.464V587.464L595.032 589.209V549.209Z" fill="#D9D9D9"/>
<path d="M483.335 568.402L493.489 566.657V606.657L483.335 608.402V568.402Z" fill="#D9D9D9"/>
<path d="M148.247 625.981L158.401 624.236V664.236L148.247 665.981V625.981Z" fill="#D9D9D9"/>
<path d="M259.942 606.788L270.097 605.043V645.043L259.942 646.788V606.788Z" fill="#D9D9D9"/>
<path d="M93.4136 185.403L103.568 183.658V223.658L93.4136 225.403V185.403Z" fill="#D9D9D9"/>
<path d="M428.502 127.824L438.657 126.079V166.079L428.502 167.824V127.824Z" fill="#D9D9D9"/>
<path d="M763.592 70.2452L773.743 68.5009V108.501L763.592 110.245V70.2452Z" fill="#D9D9D9"/>
<path d="M651.895 89.4381L662.049 87.6933V127.693L651.895 129.438V89.4381Z" fill="#D9D9D9"/>
<path d="M540.199 108.631L550.353 106.886V146.886L540.199 148.631V108.631Z" fill="#D9D9D9"/>
<path d="M205.11 166.21L215.264 164.465V204.465L205.11 206.21V166.21Z" fill="#D9D9D9"/>
<path d="M316.806 147.017L326.96 145.272V185.272L316.806 187.017V147.017Z" fill="#D9D9D9"/>
<path d="M93.4136 285.403L103.568 283.658V323.658L93.4136 325.403V285.403Z" fill="#D9D9D9"/>
<path d="M428.502 227.824L438.657 226.079V266.079L428.502 267.824V227.824Z" fill="#D9D9D9"/>
<path d="M763.592 170.245L773.746 168.5V208.5L763.592 210.245V170.245Z" fill="#D9D9D9"/>
<path d="M651.895 189.438L662.049 187.693V227.693L651.895 229.438V189.438Z" fill="#D9D9D9"/>
<path d="M540.199 208.631L550.353 206.886V246.886L540.199 248.631V208.631Z" fill="#D9D9D9"/>
<path d="M205.11 266.21L215.264 264.465V304.465L205.11 306.21V266.21Z" fill="#D9D9D9"/>
<path d="M316.806 247.017L326.96 245.272V285.272L316.806 287.017V247.017Z" fill="#D9D9D9"/>
<path d="M93.4136 385.403L103.568 383.658V423.658L93.4136 425.403V385.403Z" fill="#D9D9D9"/>
<path d="M428.502 327.824L438.657 326.079V366.079L428.502 367.824V327.824Z" fill="#D9D9D9"/>
<path d="M763.592 270.245L773.746 268.5V308.5L763.592 310.245V270.245Z" fill="#D9D9D9"/>
<path d="M651.895 289.438L662.049 287.693V327.693L651.895 329.438V289.438Z" fill="#D9D9D9"/>
<path d="M540.199 308.631L550.353 306.886V346.886L540.199 348.631V308.631Z" fill="#D9D9D9"/>
<path d="M205.11 366.21L215.264 364.465V404.465L205.11 406.21V366.21Z" fill="#D9D9D9"/>
<path d="M316.806 347.017L326.96 345.272V385.272L316.806 387.017V347.017Z" fill="#D9D9D9"/>
<path d="M93.4136 485.403L103.568 483.658V523.658L93.4136 525.403V485.403Z" fill="#D9D9D9"/>
<path d="M428.502 427.824L438.657 426.079V466.079L428.502 467.824V427.824Z" fill="#D9D9D9"/>
<path d="M763.592 370.245L773.746 368.5V408.5L763.592 410.245V370.245Z" fill="#D9D9D9"/>
<path d="M651.895 389.438L662.049 387.693V427.693L651.895 429.438V389.438Z" fill="#D9D9D9"/>
<path d="M540.199 408.631L550.353 406.886V446.886L540.199 448.631V408.631Z" fill="#D9D9D9"/>
<path d="M205.11 466.21L215.264 464.465V504.465L205.11 506.21V466.21Z" fill="#D9D9D9"/>
<path d="M316.806 447.017L326.96 445.272V485.272L316.806 487.017V447.017Z" fill="#D9D9D9"/>
<path d="M92.3979 585.577L102.552 583.833V623.833L92.3979 625.577V585.577Z" fill="#D9D9D9"/>
<path d="M427.487 527.999L437.642 526.254V566.254L427.487 567.999V527.999Z" fill="#D9D9D9"/>
<path d="M762.576 470.42L772.73 468.675V508.675L762.576 510.42V470.42Z" fill="#D9D9D9"/>
<path d="M650.88 489.613L661.034 487.868V527.868L650.88 529.613V489.613Z" fill="#D9D9D9"/>
<path d="M539.184 508.806L549.338 507.061V547.061L539.184 548.806V508.806Z" fill="#D9D9D9"/>
<path d="M204.095 566.384L214.249 564.64V604.64L204.095 606.384V566.384Z" fill="#D9D9D9"/>
<path d="M315.791 547.192L325.945 545.447V585.447L315.791 587.192V547.192Z" fill="#D9D9D9"/>
</g>
<defs>
<clipPath id="clip0_296_450">
<rect width="862" height="686" fill="white"/>
</clipPath>
</defs>
</svg>
