<svg width="862" height="686" viewBox="0 0 862 686" fill="none" xmlns="http://www.w3.org/2000/svg">
<ellipse cx="11.522" cy="14" rx="11.522" ry="14" transform="matrix(0.985556 -0.16935 0 1 605.636 364.725)" fill="#FBFF00"/>
<ellipse cx="3.54524" cy="4" rx="3.54524" ry="4" transform="matrix(0.985556 -0.16935 0 1 613.497 373.374)" fill="black"/>
<ellipse cx="11.522" cy="14" rx="11.522" ry="14" transform="matrix(0.985556 -0.16935 0 1 200.326 434.369)" fill="#FBFF00"/>
<ellipse cx="3.54524" cy="4" rx="3.54524" ry="4" transform="matrix(0.985556 -0.16935 0 1 208.188 443.019)" fill="black"/>
<ellipse cx="11.522" cy="14" rx="11.522" ry="14" transform="matrix(0.985556 -0.16935 0 1 808.288 211.902)" fill="#FBFF00"/>
<ellipse cx="3.54524" cy="4" rx="3.54524" ry="4" transform="matrix(0.985556 -0.16935 0 1 816.149 220.552)" fill="black"/>
<ellipse cx="11.522" cy="14" rx="11.522" ry="14" transform="matrix(0.985556 -0.16935 0 1 402.98 281.547)" fill="#FBFF00"/>
<ellipse cx="3.54524" cy="4" rx="3.54524" ry="4" transform="matrix(0.985556 -0.16935 0 1 410.842 290.196)" fill="black"/>
<ellipse cx="11.522" cy="14" rx="11.522" ry="14" transform="matrix(0.985556 -0.16935 0 1 808.288 329.902)" fill="#FBFF00"/>
<ellipse cx="3.54524" cy="4" rx="3.54524" ry="4" transform="matrix(0.985556 -0.16935 0 1 816.149 338.552)" fill="black"/>
<ellipse cx="11.522" cy="14" rx="11.522" ry="14" transform="matrix(0.985556 -0.16935 0 1 402.98 399.547)" fill="#FBFF00"/>
<ellipse cx="3.54524" cy="4" rx="3.54524" ry="4" transform="matrix(0.985556 -0.16935 0 1 410.842 408.196)" fill="black"/>
<ellipse cx="11.522" cy="14" rx="11.522" ry="14" transform="matrix(0.985556 -0.16935 0 1 706.962 347.314)" fill="#FBFF00"/>
<ellipse cx="3.54524" cy="4" rx="3.54524" ry="4" transform="matrix(0.985556 -0.16935 0 1 714.823 355.963)" fill="black"/>
<ellipse cx="11.522" cy="14" rx="11.522" ry="14" transform="matrix(0.985556 -0.16935 0 1 301.654 416.958)" fill="#FBFF00"/>
<ellipse cx="3.54524" cy="4" rx="3.54524" ry="4" transform="matrix(0.985556 -0.16935 0 1 309.516 425.607)" fill="black"/>
<ellipse cx="11.522" cy="14" rx="11.522" ry="14" transform="matrix(0.985556 -0.16935 0 1 605.636 482.725)" fill="#FBFF00"/>
<ellipse cx="3.54524" cy="4" rx="3.54524" ry="4" transform="matrix(0.985556 -0.16935 0 1 613.497 491.374)" fill="black"/>
<ellipse cx="11.522" cy="14" rx="11.522" ry="14" transform="matrix(0.985556 -0.16935 0 1 200.326 552.369)" fill="#FBFF00"/>
<ellipse cx="3.54524" cy="4" rx="3.54524" ry="4" transform="matrix(0.985556 -0.16935 0 1 208.188 561.018)" fill="black"/>
<ellipse cx="11.522" cy="14" rx="11.522" ry="14" transform="matrix(0.985556 -0.16935 0 1 706.962 465.314)" fill="#FBFF00"/>
<ellipse cx="3.54524" cy="4" rx="3.54524" ry="4" transform="matrix(0.985556 -0.16935 0 1 714.823 473.963)" fill="black"/>
<ellipse cx="11.522" cy="14" rx="11.522" ry="14" transform="matrix(0.985556 -0.16935 0 1 301.654 534.958)" fill="#FBFF00"/>
<ellipse cx="3.54524" cy="4" rx="3.54524" ry="4" transform="matrix(0.985556 -0.16935 0 1 309.516 543.607)" fill="black"/>
<ellipse cx="11.522" cy="14" rx="11.522" ry="14" transform="matrix(0.985556 -0.16935 0 1 808.288 447.902)" fill="#FBFF00"/>
<ellipse cx="3.54524" cy="4" rx="3.54524" ry="4" transform="matrix(0.985556 -0.16935 0 1 816.149 456.552)" fill="black"/>
<ellipse cx="11.522" cy="14" rx="11.522" ry="14" transform="matrix(0.985556 -0.16935 0 1 402.98 517.547)" fill="#FBFF00"/>
<ellipse cx="3.54524" cy="4" rx="3.54524" ry="4" transform="matrix(0.985556 -0.16935 0 1 410.842 526.196)" fill="black"/>
<ellipse cx="11.522" cy="14" rx="11.522" ry="14" transform="matrix(0.985556 -0.16935 0 1 301.654 180.958)" fill="#FBFF00"/>
<ellipse cx="3.54524" cy="4" rx="3.54524" ry="4" transform="matrix(0.985556 -0.16935 0 1 309.516 189.607)" fill="black"/>
<ellipse cx="11.522" cy="14" rx="11.522" ry="14" transform="matrix(0.985556 -0.16935 0 1 402.98 163.547)" fill="#FBFF00"/>
<ellipse cx="3.54524" cy="4" rx="3.54524" ry="4" transform="matrix(0.985556 -0.16935 0 1 410.842 172.196)" fill="black"/>
<ellipse cx="11.522" cy="14" rx="11.522" ry="14" transform="matrix(0.985556 -0.16935 0 1 706.962 111.314)" fill="#FBFF00"/>
<ellipse cx="3.54524" cy="4" rx="3.54524" ry="4" transform="matrix(0.985556 -0.16935 0 1 714.823 119.963)" fill="black"/>
<ellipse cx="11.522" cy="14" rx="11.522" ry="14" transform="matrix(0.985556 -0.16935 0 1 605.636 128.725)" fill="#FBFF00"/>
<ellipse cx="3.54524" cy="4" rx="3.54524" ry="4" transform="matrix(0.985556 -0.16935 0 1 613.497 137.374)" fill="black"/>
<ellipse cx="11.522" cy="14" rx="11.522" ry="14" transform="matrix(0.985556 -0.16935 0 1 200.326 198.369)" fill="#FBFF00"/>
<ellipse cx="3.54524" cy="4" rx="3.54524" ry="4" transform="matrix(0.985556 -0.16935 0 1 208.188 207.019)" fill="black"/>
<ellipse cx="11.522" cy="14" rx="11.522" ry="14" transform="matrix(0.985556 -0.16935 0 1 99 215.781)" fill="#FBFF00"/>
<ellipse cx="3.54524" cy="4" rx="3.54524" ry="4" transform="matrix(0.985556 -0.16935 0 1 106.861 224.43)" fill="black"/>
<ellipse cx="11.522" cy="14" rx="11.522" ry="14" transform="matrix(0.985556 -0.16935 0 1 504.308 500.136)" fill="#FBFF00"/>
<ellipse cx="3.54524" cy="4" rx="3.54524" ry="4" transform="matrix(0.985556 -0.16935 0 1 512.169 508.785)" fill="black"/>
<ellipse cx="11.522" cy="14" rx="11.522" ry="14" transform="matrix(0.985556 -0.16935 0 1 99 569.781)" fill="#FBFF00"/>
<ellipse cx="3.54524" cy="4" rx="3.54524" ry="4" transform="matrix(0.985556 -0.16935 0 1 106.861 578.43)" fill="black"/>
<ellipse cx="11.522" cy="14" rx="11.522" ry="14" transform="matrix(0.985556 -0.16935 0 1 808.288 93.9024)" fill="#FBFF00"/>
<ellipse cx="3.54524" cy="4" rx="3.54524" ry="4" transform="matrix(0.985556 -0.16935 0 1 816.149 102.552)" fill="black"/>
<ellipse cx="11.522" cy="14" rx="11.522" ry="14" transform="matrix(0.985556 -0.16935 0 1 504.308 146.136)" fill="#FBFF00"/>
<ellipse cx="3.54524" cy="4" rx="3.54524" ry="4" transform="matrix(0.985556 -0.16935 0 1 512.169 154.785)" fill="black"/>
<ellipse cx="11.522" cy="14" rx="11.522" ry="14" transform="matrix(0.985556 -0.16935 0 1 504.308 264.136)" fill="#FBFF00"/>
<ellipse cx="3.54524" cy="4" rx="3.54524" ry="4" transform="matrix(0.985556 -0.16935 0 1 512.169 272.785)" fill="black"/>
<ellipse cx="11.522" cy="14" rx="11.522" ry="14" transform="matrix(0.985556 -0.16935 0 1 99 333.781)" fill="#FBFF00"/>
<ellipse cx="3.54524" cy="4" rx="3.54524" ry="4" transform="matrix(0.985556 -0.16935 0 1 106.861 342.43)" fill="black"/>
<ellipse cx="11.522" cy="14" rx="11.522" ry="14" transform="matrix(0.985556 -0.16935 0 1 504.308 382.136)" fill="#FBFF00"/>
<ellipse cx="3.54524" cy="4" rx="3.54524" ry="4" transform="matrix(0.985556 -0.16935 0 1 512.169 390.785)" fill="black"/>
<ellipse cx="11.522" cy="14" rx="11.522" ry="14" transform="matrix(0.985556 -0.16935 0 1 99 451.781)" fill="#FBFF00"/>
<ellipse cx="3.54524" cy="4" rx="3.54524" ry="4" transform="matrix(0.985556 -0.16935 0 1 106.861 460.43)" fill="black"/>
<ellipse cx="11.522" cy="14" rx="11.522" ry="14" transform="matrix(0.985556 -0.16935 0 1 605.636 246.725)" fill="#FBFF00"/>
<ellipse cx="3.54524" cy="4" rx="3.54524" ry="4" transform="matrix(0.985556 -0.16935 0 1 613.497 255.374)" fill="black"/>
<ellipse cx="11.522" cy="14" rx="11.522" ry="14" transform="matrix(0.985556 -0.16935 0 1 200.326 316.369)" fill="#FBFF00"/>
<ellipse cx="3.54524" cy="4" rx="3.54524" ry="4" transform="matrix(0.985556 -0.16935 0 1 208.188 325.019)" fill="black"/>
<ellipse cx="11.522" cy="14" rx="11.522" ry="14" transform="matrix(0.985556 -0.16935 0 1 706.962 229.314)" fill="#FBFF00"/>
<ellipse cx="3.54524" cy="4" rx="3.54524" ry="4" transform="matrix(0.985556 -0.16935 0 1 714.823 237.963)" fill="black"/>
<ellipse cx="11.522" cy="14" rx="11.522" ry="14" transform="matrix(0.985556 -0.16935 0 1 301.654 298.958)" fill="#FBFF00"/>
<ellipse cx="3.54524" cy="4" rx="3.54524" ry="4" transform="matrix(0.985556 -0.16935 0 1 309.516 307.607)" fill="black"/>
</svg>
